<mxfile host="Electron" agent="Mozilla/5.0 (Windows NT 10.0; Win64; x64) AppleWebKit/537.36 (KHTML, like Gecko) draw.io/24.7.5 Chrome/126.0.6478.183 Electron/31.3.0 Safari/537.36" version="24.7.5">
  <diagram name="Data Architecture" id="qsl-yLtg4liw6EHXuBID">
    <mxGraphModel dx="2844" dy="2398" grid="1" gridSize="10" guides="1" tooltips="1" connect="1" arrows="1" fold="1" page="1" pageScale="1" pageWidth="1920" pageHeight="1200" math="0" shadow="0">
      <root>
        <mxCell id="PmAsDYt7ePFWswJWPdAt-0" />
        <mxCell id="PmAsDYt7ePFWswJWPdAt-1" parent="PmAsDYt7ePFWswJWPdAt-0" />
        <mxCell id="htLx2qYJ6O2MrZUwvxSp-0" value="&lt;font style=&quot;font-size: 38px;&quot;&gt;&lt;b style=&quot;font-size: 38px;&quot;&gt;High Level Architecture&lt;br style=&quot;font-size: 38px;&quot;&gt;&lt;/b&gt;&lt;/font&gt;" style="text;html=1;strokeColor=none;fillColor=none;align=left;verticalAlign=middle;whiteSpace=wrap;rounded=0;fontSize=38;fontFamily=Helvetica;" parent="PmAsDYt7ePFWswJWPdAt-1" vertex="1">
          <mxGeometry x="50" y="-1140" width="480" height="54" as="geometry" />
        </mxCell>
        <mxCell id="9O1I6l7ymoWSYBFQMa-3-24" value="" style="rounded=0;whiteSpace=wrap;html=1;hachureGap=4;fontFamily=Helvetica;fontSize=20;fillStyle=cross-hatch;strokeColor=#636363;fillColor=none;dashed=1;" parent="PmAsDYt7ePFWswJWPdAt-1" vertex="1">
          <mxGeometry x="1540" y="-973" width="212" height="743" as="geometry" />
        </mxCell>
        <mxCell id="9O1I6l7ymoWSYBFQMa-3-25" value="" style="rounded=0;whiteSpace=wrap;html=1;hachureGap=4;fontFamily=Helvetica;fontSize=20;fillStyle=cross-hatch;strokeColor=#636363;fillColor=none;dashed=1;" parent="PmAsDYt7ePFWswJWPdAt-1" vertex="1">
          <mxGeometry x="210" y="-973" width="230" height="743" as="geometry" />
        </mxCell>
        <mxCell id="9O1I6l7ymoWSYBFQMa-3-26" value="" style="rounded=0;whiteSpace=wrap;html=1;hachureGap=4;fontFamily=Helvetica;fontSize=20;fillStyle=cross-hatch;strokeColor=#636363;fillColor=none;dashed=1;" parent="PmAsDYt7ePFWswJWPdAt-1" vertex="1">
          <mxGeometry x="487.62" y="-973" width="990" height="743" as="geometry" />
        </mxCell>
        <mxCell id="9O1I6l7ymoWSYBFQMa-3-27" value="" style="rounded=0;whiteSpace=wrap;html=1;hachureGap=4;fontFamily=Helvetica;fontSize=20;fillStyle=cross-hatch;strokeColor=#DBDB1C;fillColor=none;" parent="PmAsDYt7ePFWswJWPdAt-1" vertex="1">
          <mxGeometry x="1187.48" y="-881" width="251" height="631" as="geometry" />
        </mxCell>
        <mxCell id="9O1I6l7ymoWSYBFQMa-3-28" value="" style="rounded=0;whiteSpace=wrap;html=1;hachureGap=4;fontFamily=Helvetica;fontSize=20;fillStyle=cross-hatch;strokeColor=#636363;fillColor=none;" parent="PmAsDYt7ePFWswJWPdAt-1" vertex="1">
          <mxGeometry x="854.8" y="-883" width="251" height="633" as="geometry" />
        </mxCell>
        <mxCell id="9O1I6l7ymoWSYBFQMa-3-29" value="" style="rounded=0;whiteSpace=wrap;html=1;hachureGap=4;fontFamily=Helvetica;fontSize=20;fillStyle=cross-hatch;strokeColor=#CC6600;fillColor=none;" parent="PmAsDYt7ePFWswJWPdAt-1" vertex="1">
          <mxGeometry x="530.35" y="-883" width="251" height="633" as="geometry" />
        </mxCell>
        <mxCell id="9O1I6l7ymoWSYBFQMa-3-45" value="&lt;b style=&quot;background-color: initial; font-size: 17px;&quot;&gt;Object Type:&lt;/b&gt;&lt;span style=&quot;background-color: initial; font-size: 17px;&quot;&gt; CSV Files&lt;br style=&quot;font-size: 17px;&quot;&gt;&lt;br style=&quot;font-size: 17px;&quot;&gt;&lt;/span&gt;&lt;span style=&quot;font-size: 17px;&quot;&gt;&lt;b style=&quot;font-size: 17px;&quot;&gt;Interface: &lt;/b&gt;Files in Folders&lt;/span&gt;" style="text;html=1;strokeColor=none;fillColor=none;align=left;verticalAlign=middle;whiteSpace=wrap;rounded=0;fontSize=17;" parent="PmAsDYt7ePFWswJWPdAt-1" vertex="1">
          <mxGeometry x="216.37" y="-475" width="226.5" height="60" as="geometry" />
        </mxCell>
        <mxCell id="9O1I6l7ymoWSYBFQMa-3-50" value="Bronze Layer" style="rounded=0;whiteSpace=wrap;html=1;hachureGap=4;fontFamily=Helvetica;fontSize=20;fillStyle=auto;strokeColor=#d79b00;fillColor=#ffe6cc;fontStyle=1;" parent="PmAsDYt7ePFWswJWPdAt-1" vertex="1">
          <mxGeometry x="529.76" y="-934" width="250.94" height="42" as="geometry" />
        </mxCell>
        <mxCell id="9O1I6l7ymoWSYBFQMa-3-51" value="Silver Layer" style="rounded=0;whiteSpace=wrap;html=1;hachureGap=4;fontFamily=Helvetica;fontSize=20;fillStyle=auto;strokeColor=#666666;fillColor=#f5f5f5;fontStyle=1;fontColor=#333333;" parent="PmAsDYt7ePFWswJWPdAt-1" vertex="1">
          <mxGeometry x="852.97" y="-934" width="250.94" height="42" as="geometry" />
        </mxCell>
        <mxCell id="9O1I6l7ymoWSYBFQMa-3-52" value="Gold Layer" style="rounded=0;whiteSpace=wrap;html=1;hachureGap=4;fontFamily=Helvetica;fontSize=20;fillStyle=auto;strokeColor=#d6b656;fillColor=#fff2cc;fontStyle=1;" parent="PmAsDYt7ePFWswJWPdAt-1" vertex="1">
          <mxGeometry x="1187.4799999999998" y="-934" width="250.94" height="42" as="geometry" />
        </mxCell>
        <mxCell id="9O1I6l7ymoWSYBFQMa-3-53" value="&lt;b&gt;&lt;font style=&quot;font-size: 26px;&quot;&gt;Data Warehouse&lt;/font&gt;&lt;/b&gt;" style="rounded=0;whiteSpace=wrap;html=1;fillColor=default;strokeColor=none;" parent="PmAsDYt7ePFWswJWPdAt-1" vertex="1">
          <mxGeometry x="823.12" y="-990" width="296.19" height="30" as="geometry" />
        </mxCell>
        <mxCell id="9O1I6l7ymoWSYBFQMa-3-57" value="&lt;b&gt;&lt;font style=&quot;font-size: 26px;&quot;&gt;Sources&lt;/font&gt;&lt;/b&gt;" style="rounded=0;whiteSpace=wrap;html=1;fillColor=default;strokeColor=none;" parent="PmAsDYt7ePFWswJWPdAt-1" vertex="1">
          <mxGeometry x="262.96" y="-990" width="124.09" height="30" as="geometry" />
        </mxCell>
        <mxCell id="9O1I6l7ymoWSYBFQMa-3-58" value="&lt;b&gt;&lt;font style=&quot;font-size: 26px;&quot;&gt;Consume&lt;/font&gt;&lt;/b&gt;" style="rounded=0;whiteSpace=wrap;html=1;fillColor=default;strokeColor=none;" parent="PmAsDYt7ePFWswJWPdAt-1" vertex="1">
          <mxGeometry x="1582.7399999999998" y="-990" width="124.09" height="30" as="geometry" />
        </mxCell>
        <mxCell id="9O1I6l7ymoWSYBFQMa-3-59" value="" style="endArrow=none;html=1;rounded=0;exitX=0;exitY=0.5;exitDx=0;exitDy=0;strokeColor=#666666;fillColor=#f5f5f5;" parent="PmAsDYt7ePFWswJWPdAt-1" edge="1">
          <mxGeometry width="50" height="50" relative="1" as="geometry">
            <mxPoint x="225.20999999999992" y="-509" as="sourcePoint" />
            <mxPoint x="418.84000000000003" y="-509" as="targetPoint" />
          </mxGeometry>
        </mxCell>
        <mxCell id="9O1I6l7ymoWSYBFQMa-3-71" value="" style="html=1;verticalLabelPosition=bottom;align=center;labelBackgroundColor=#ffffff;verticalAlign=top;strokeWidth=2;strokeColor=#d79b00;shadow=0;dashed=0;shape=mxgraph.ios7.icons.data;fillColor=#ffe6cc;" parent="PmAsDYt7ePFWswJWPdAt-1" vertex="1">
          <mxGeometry x="616.03" y="-793.84" width="77.15" height="90" as="geometry" />
        </mxCell>
        <mxCell id="9O1I6l7ymoWSYBFQMa-3-72" value="" style="html=1;verticalLabelPosition=bottom;align=center;labelBackgroundColor=#ffffff;verticalAlign=top;strokeWidth=2;strokeColor=#666666;shadow=0;dashed=0;shape=mxgraph.ios7.icons.data;fillColor=#f5f5f5;fontColor=#333333;" parent="PmAsDYt7ePFWswJWPdAt-1" vertex="1">
          <mxGeometry x="932.63" y="-793.84" width="77.15" height="90" as="geometry" />
        </mxCell>
        <mxCell id="9O1I6l7ymoWSYBFQMa-3-73" value="" style="html=1;verticalLabelPosition=bottom;align=center;labelBackgroundColor=#ffffff;verticalAlign=top;strokeWidth=2;strokeColor=#d6b656;shadow=0;dashed=0;shape=mxgraph.ios7.icons.data;fillColor=#fff2cc;" parent="PmAsDYt7ePFWswJWPdAt-1" vertex="1">
          <mxGeometry x="1274.4099999999999" y="-793.84" width="77.15" height="90" as="geometry" />
        </mxCell>
        <mxCell id="9O1I6l7ymoWSYBFQMa-3-74" value="" style="shape=singleArrow;whiteSpace=wrap;html=1;fillColor=#b1ddf0;strokeColor=#10739e;arrowWidth=0.43796185699909285;arrowSize=0.27089953548693746;" parent="PmAsDYt7ePFWswJWPdAt-1" vertex="1">
          <mxGeometry x="420" y="-711.5" width="100" height="40.16" as="geometry" />
        </mxCell>
        <mxCell id="9O1I6l7ymoWSYBFQMa-3-78" value="&lt;font style=&quot;font-size: 20px;&quot;&gt;Raw Data&lt;/font&gt;" style="text;html=1;strokeColor=none;fillColor=none;align=center;verticalAlign=middle;whiteSpace=wrap;rounded=0;" parent="PmAsDYt7ePFWswJWPdAt-1" vertex="1">
          <mxGeometry x="570.23" y="-693.84" width="170" height="30" as="geometry" />
        </mxCell>
        <mxCell id="9O1I6l7ymoWSYBFQMa-3-79" value="&lt;font style=&quot;font-size: 20px;&quot;&gt;Cleaned, Standardized Data&lt;/font&gt;" style="text;html=1;strokeColor=none;fillColor=none;align=center;verticalAlign=middle;whiteSpace=wrap;rounded=0;" parent="PmAsDYt7ePFWswJWPdAt-1" vertex="1">
          <mxGeometry x="856.21" y="-683.84" width="230" height="30" as="geometry" />
        </mxCell>
        <mxCell id="9O1I6l7ymoWSYBFQMa-3-82" value="&lt;font style=&quot;font-size: 20px;&quot;&gt;Business-Ready Data&lt;/font&gt;" style="text;html=1;strokeColor=none;fillColor=none;align=center;verticalAlign=middle;whiteSpace=wrap;rounded=0;" parent="PmAsDYt7ePFWswJWPdAt-1" vertex="1">
          <mxGeometry x="1197.95" y="-693.84" width="230" height="30" as="geometry" />
        </mxCell>
        <mxCell id="9O1I6l7ymoWSYBFQMa-3-83" value="" style="endArrow=none;html=1;rounded=0;exitX=0;exitY=0.5;exitDx=0;exitDy=0;strokeColor=#b46504;fillColor=#fad7ac;" parent="PmAsDYt7ePFWswJWPdAt-1" edge="1">
          <mxGeometry width="50" height="50" relative="1" as="geometry">
            <mxPoint x="558.7499999999999" y="-618.84" as="sourcePoint" />
            <mxPoint x="752.38" y="-618.84" as="targetPoint" />
          </mxGeometry>
        </mxCell>
        <mxCell id="9O1I6l7ymoWSYBFQMa-3-84" value="" style="endArrow=none;html=1;rounded=0;exitX=0;exitY=0.5;exitDx=0;exitDy=0;strokeColor=#666666;fillColor=#f5f5f5;" parent="PmAsDYt7ePFWswJWPdAt-1" edge="1">
          <mxGeometry width="50" height="50" relative="1" as="geometry">
            <mxPoint x="874.9599999999999" y="-618.84" as="sourcePoint" />
            <mxPoint x="1068.59" y="-618.84" as="targetPoint" />
          </mxGeometry>
        </mxCell>
        <mxCell id="9O1I6l7ymoWSYBFQMa-3-85" value="" style="endArrow=none;html=1;rounded=0;exitX=0;exitY=0.5;exitDx=0;exitDy=0;strokeColor=#d6b656;fillColor=#fff2cc;" parent="PmAsDYt7ePFWswJWPdAt-1" edge="1">
          <mxGeometry width="50" height="50" relative="1" as="geometry">
            <mxPoint x="1225" y="-618.84" as="sourcePoint" />
            <mxPoint x="1418.63" y="-618.84" as="targetPoint" />
          </mxGeometry>
        </mxCell>
        <mxCell id="9O1I6l7ymoWSYBFQMa-3-87" value="&lt;b style=&quot;background-color: initial; font-size: 17px;&quot;&gt;Object Type:&lt;/b&gt;&lt;span style=&quot;background-color: initial; font-size: 17px;&quot;&gt; Tables&lt;br style=&quot;font-size: 17px;&quot;&gt;&lt;br style=&quot;font-size: 17px;&quot;&gt;&lt;/span&gt;&lt;b style=&quot;font-size: 17px; background-color: initial;&quot;&gt;Load&lt;/b&gt;&lt;span style=&quot;font-size: 17px; background-color: initial;&quot;&gt;:&amp;nbsp;&lt;br style=&quot;font-size: 17px;&quot;&gt;&lt;/span&gt;&lt;ul style=&quot;border-color: var(--border-color); font-size: 17px;&quot;&gt;&lt;li style=&quot;border-color: var(--border-color);&quot;&gt;Batch Processing&lt;/li&gt;&lt;li style=&quot;border-color: var(--border-color); font-size: 17px;&quot;&gt;&lt;span style=&quot;font-size: 17px;&quot;&gt;Full Load&lt;/span&gt;&lt;/li&gt;&lt;li style=&quot;border-color: var(--border-color); font-size: 17px;&quot;&gt;&lt;span style=&quot;font-size: 17px;&quot;&gt;Truncate &amp;amp; Insert&lt;/span&gt;&lt;/li&gt;&lt;/ul&gt;&lt;b style=&quot;font-size: 17px; background-color: initial;&quot;&gt;Transformations&lt;/b&gt;:&lt;span style=&quot;font-size: 17px; background-color: initial;&quot;&gt;&lt;br style=&quot;font-size: 17px;&quot;&gt;&lt;/span&gt;&lt;ul style=&quot;font-size: 17px;&quot;&gt;&lt;li style=&quot;font-size: 17px;&quot;&gt;&lt;span style=&quot;font-size: 17px; background-color: initial;&quot;&gt;Data Cleansing&lt;/span&gt;&lt;br style=&quot;font-size: 17px;&quot;&gt;&lt;/li&gt;&lt;li style=&quot;font-size: 17px;&quot;&gt;&lt;span style=&quot;font-size: 17px; background-color: initial;&quot;&gt;Data Standrization&lt;/span&gt;&lt;br style=&quot;font-size: 17px;&quot;&gt;&lt;/li&gt;&lt;li style=&quot;font-size: 17px;&quot;&gt;&lt;span style=&quot;font-size: 17px; background-color: initial;&quot;&gt;Data Normalization&lt;/span&gt;&lt;br style=&quot;font-size: 17px;&quot;&gt;&lt;/li&gt;&lt;li style=&quot;font-size: 17px;&quot;&gt;&lt;span style=&quot;font-size: 17px; background-color: initial;&quot;&gt;Derived Columns&amp;nbsp;&lt;/span&gt;&lt;br style=&quot;font-size: 17px;&quot;&gt;&lt;/li&gt;&lt;li style=&quot;font-size: 17px;&quot;&gt;&lt;span style=&quot;font-size: 17px; background-color: initial;&quot;&gt;Data Enrichment&amp;nbsp;&lt;/span&gt;&lt;/li&gt;&lt;/ul&gt;&lt;b style=&quot;background-color: initial; font-size: 17px;&quot;&gt;Data Model:&lt;/b&gt;&lt;span style=&quot;background-color: initial; font-size: 17px;&quot;&gt;&amp;nbsp;&lt;/span&gt;None (as-is)" style="text;html=1;strokeColor=none;fillColor=none;align=left;verticalAlign=middle;whiteSpace=wrap;rounded=0;fontSize=17;" parent="PmAsDYt7ePFWswJWPdAt-1" vertex="1">
          <mxGeometry x="871.2" y="-598.84" width="200" height="341" as="geometry" />
        </mxCell>
        <mxCell id="9O1I6l7ymoWSYBFQMa-3-88" value="&lt;b style=&quot;background-color: initial; font-size: 17px;&quot;&gt;Object Type:&lt;/b&gt;&lt;span style=&quot;background-color: initial; font-size: 17px;&quot;&gt; Tables&lt;br style=&quot;font-size: 17px;&quot;&gt;&lt;br style=&quot;font-size: 17px;&quot;&gt;&lt;/span&gt;&lt;b style=&quot;font-size: 17px; background-color: initial;&quot;&gt;Load&lt;/b&gt;&lt;span style=&quot;font-size: 17px; background-color: initial;&quot;&gt;:&amp;nbsp;&lt;br style=&quot;font-size: 17px;&quot;&gt;&lt;/span&gt;&lt;ul style=&quot;border-color: var(--border-color); font-size: 17px;&quot;&gt;&lt;li style=&quot;border-color: var(--border-color);&quot;&gt;Batch Processing&lt;/li&gt;&lt;li style=&quot;border-color: var(--border-color); font-size: 17px;&quot;&gt;Full Load&lt;/li&gt;&lt;li style=&quot;border-color: var(--border-color); font-size: 17px;&quot;&gt;&lt;span style=&quot;font-size: 17px;&quot;&gt;Truncate &amp;amp; Insert&lt;/span&gt;&lt;/li&gt;&lt;/ul&gt;&lt;span style=&quot;font-size: 17px; background-color: initial;&quot;&gt;No &lt;b style=&quot;font-size: 17px;&quot;&gt;Transformations&lt;/b&gt;&lt;br style=&quot;font-size: 17px;&quot;&gt;&lt;/span&gt;&lt;br style=&quot;font-size: 17px;&quot;&gt;&lt;b style=&quot;background-color: initial; font-size: 17px;&quot;&gt;Data Model:&lt;/b&gt;&lt;span style=&quot;background-color: initial; font-size: 17px;&quot;&gt; None (as-is)&lt;/span&gt;" style="text;html=1;strokeColor=none;fillColor=none;align=left;verticalAlign=middle;whiteSpace=wrap;rounded=0;fontSize=17;" parent="PmAsDYt7ePFWswJWPdAt-1" vertex="1">
          <mxGeometry x="555.23" y="-598.84" width="200" height="230" as="geometry" />
        </mxCell>
        <mxCell id="9O1I6l7ymoWSYBFQMa-3-89" value="&lt;b style=&quot;background-color: initial; font-size: 17px;&quot;&gt;Object Type:&lt;/b&gt;&lt;span style=&quot;background-color: initial; font-size: 17px;&quot;&gt; Views&lt;br style=&quot;font-size: 17px;&quot;&gt;&lt;br style=&quot;font-size: 17px;&quot;&gt;&lt;/span&gt;&lt;span style=&quot;font-size: 17px; background-color: initial;&quot;&gt;No &lt;b style=&quot;font-size: 17px;&quot;&gt;Load&lt;/b&gt;&lt;br style=&quot;font-size: 17px;&quot;&gt;&lt;br style=&quot;font-size: 17px;&quot;&gt;&lt;/span&gt;&lt;b style=&quot;font-size: 17px; background-color: initial;&quot;&gt;Transformations&lt;/b&gt;:&lt;span style=&quot;font-size: 17px; background-color: initial;&quot;&gt;&lt;br style=&quot;font-size: 17px;&quot;&gt;&lt;/span&gt;&lt;ul style=&quot;font-size: 17px;&quot;&gt;&lt;li style=&quot;font-size: 17px;&quot;&gt;&lt;span style=&quot;font-size: 17px;&quot;&gt;Data Integrations&lt;/span&gt;&lt;/li&gt;&lt;li style=&quot;font-size: 17px;&quot;&gt;&lt;span style=&quot;font-size: 17px;&quot;&gt;Aggregations&lt;/span&gt;&lt;/li&gt;&lt;li style=&quot;font-size: 17px;&quot;&gt;&lt;span style=&quot;font-size: 17px;&quot;&gt;Business Logics&lt;/span&gt;&lt;/li&gt;&lt;/ul&gt;&lt;b style=&quot;background-color: initial; font-size: 17px;&quot;&gt;&lt;br style=&quot;font-size: 17px;&quot;&gt;&lt;span style=&quot;font-size: 17px;&quot;&gt;Data Model:&lt;/span&gt;&lt;br style=&quot;font-size: 17px;&quot;&gt;&lt;/b&gt;&lt;ul style=&quot;border-color: var(--border-color); font-size: 17px;&quot;&gt;&lt;li style=&quot;border-color: var(--border-color); font-size: 17px;&quot;&gt;Star Schema&lt;/li&gt;&lt;li style=&quot;border-color: var(--border-color); font-size: 17px;&quot;&gt;&lt;span style=&quot;border-color: var(--border-color); font-size: 17px;&quot;&gt;Flat Table&lt;/span&gt;&lt;/li&gt;&lt;li style=&quot;border-color: var(--border-color); font-size: 17px;&quot;&gt;&lt;span style=&quot;border-color: var(--border-color); font-size: 17px;&quot;&gt;Aggregated Table&lt;/span&gt;&lt;/li&gt;&lt;/ul&gt;" style="text;html=1;strokeColor=none;fillColor=none;align=left;verticalAlign=middle;whiteSpace=wrap;rounded=0;fontSize=17;" parent="PmAsDYt7ePFWswJWPdAt-1" vertex="1">
          <mxGeometry x="1217.98" y="-598.84" width="190" height="339.84" as="geometry" />
        </mxCell>
        <mxCell id="9O1I6l7ymoWSYBFQMa-3-92" value="" style="group" parent="PmAsDYt7ePFWswJWPdAt-1" vertex="1" connectable="0">
          <mxGeometry x="290" y="-779" width="79.24" height="55.16" as="geometry" />
        </mxCell>
        <mxCell id="9O1I6l7ymoWSYBFQMa-3-39" value="&lt;font style=&quot;font-size: 20px;&quot;&gt;CRM&lt;/font&gt;" style="image;aspect=fixed;html=1;points=[];align=center;fontSize=12;image=img/lib/azure2/general/Folder_Blank.svg;" parent="9O1I6l7ymoWSYBFQMa-3-92" vertex="1">
          <mxGeometry width="57.50146214099218" height="46.66913838120106" as="geometry" />
        </mxCell>
        <mxCell id="9O1I6l7ymoWSYBFQMa-3-41" value="" style="image;aspect=fixed;html=1;points=[];align=center;fontSize=12;image=img/lib/azure2/general/File.svg;" parent="9O1I6l7ymoWSYBFQMa-3-92" vertex="1">
          <mxGeometry x="49.2553002610966" y="17.46180426462546" width="29.9846997389034" height="36.94516971279375" as="geometry" />
        </mxCell>
        <mxCell id="9O1I6l7ymoWSYBFQMa-3-93" value="" style="group" parent="PmAsDYt7ePFWswJWPdAt-1" vertex="1" connectable="0">
          <mxGeometry x="292" y="-659" width="78" height="55.16" as="geometry" />
        </mxCell>
        <mxCell id="9O1I6l7ymoWSYBFQMa-3-38" value="&lt;font style=&quot;font-size: 20px;&quot;&gt;ERP&lt;/font&gt;" style="image;aspect=fixed;html=1;points=[];align=center;fontSize=12;image=img/lib/azure2/general/Folder_Blank.svg;" parent="9O1I6l7ymoWSYBFQMa-3-93" vertex="1">
          <mxGeometry width="56.60164117866469" height="45.93882879522568" as="geometry" />
        </mxCell>
        <mxCell id="9O1I6l7ymoWSYBFQMa-3-42" value="" style="image;aspect=fixed;html=1;points=[];align=center;fontSize=12;image=img/lib/azure2/general/File.svg;" parent="9O1I6l7ymoWSYBFQMa-3-93" vertex="1">
          <mxGeometry x="48.48452070123088" y="18.464949441192108" width="29.515479298769126" height="36.367027228646045" as="geometry" />
        </mxCell>
        <mxCell id="9O1I6l7ymoWSYBFQMa-3-94" value="" style="shape=singleArrow;whiteSpace=wrap;html=1;fillColor=#b1ddf0;strokeColor=#10739e;arrowWidth=0.43796185699909285;arrowSize=0.27089953548693746;" parent="PmAsDYt7ePFWswJWPdAt-1" vertex="1">
          <mxGeometry x="790" y="-711.5" width="59.3" height="40.16" as="geometry" />
        </mxCell>
        <mxCell id="9O1I6l7ymoWSYBFQMa-3-95" value="" style="shape=singleArrow;whiteSpace=wrap;html=1;fillColor=#b1ddf0;strokeColor=#10739e;arrowWidth=0.43796185699909285;arrowSize=0.27089953548693746;" parent="PmAsDYt7ePFWswJWPdAt-1" vertex="1">
          <mxGeometry x="1119.31" y="-711.5" width="59.3" height="40.16" as="geometry" />
        </mxCell>
        <mxCell id="9O1I6l7ymoWSYBFQMa-3-96" value="" style="shape=singleArrow;whiteSpace=wrap;html=1;fillColor=#b1ddf0;strokeColor=#10739e;arrowWidth=0.43796185699909285;arrowSize=0.27089953548693746;" parent="PmAsDYt7ePFWswJWPdAt-1" vertex="1">
          <mxGeometry x="1461.9899999999998" y="-711.5" width="89.63" height="40.16" as="geometry" />
        </mxCell>
        <mxCell id="9O1I6l7ymoWSYBFQMa-3-104" value="" style="sketch=0;html=1;aspect=fixed;strokeColor=none;shadow=0;fillColor=#3B8DF1;verticalAlign=top;labelPosition=center;verticalLabelPosition=bottom;shape=mxgraph.gcp2.big_query" parent="PmAsDYt7ePFWswJWPdAt-1" vertex="1">
          <mxGeometry x="1612.4199999999998" y="-661.84" width="58.41" height="59" as="geometry" />
        </mxCell>
        <mxCell id="9O1I6l7ymoWSYBFQMa-3-105" value="&lt;span style=&quot;font-size: 18px;&quot;&gt;Ad-Hoc &lt;br&gt;SQL Queries&lt;br style=&quot;font-size: 18px;&quot;&gt;&lt;/span&gt;" style="text;html=1;strokeColor=none;fillColor=none;align=center;verticalAlign=middle;whiteSpace=wrap;rounded=0;fontSize=18;" parent="PmAsDYt7ePFWswJWPdAt-1" vertex="1">
          <mxGeometry x="1551.62" y="-594.84" width="180" height="30" as="geometry" />
        </mxCell>
        <mxCell id="9O1I6l7ymoWSYBFQMa-3-107" value="&lt;span style=&quot;font-size: 18px;&quot;&gt;BI &amp;amp; Reporting&lt;br style=&quot;font-size: 18px;&quot;&gt;&lt;/span&gt;" style="text;html=1;strokeColor=none;fillColor=none;align=center;verticalAlign=middle;whiteSpace=wrap;rounded=0;fontSize=18;" parent="PmAsDYt7ePFWswJWPdAt-1" vertex="1">
          <mxGeometry x="1560.37" y="-740.84" width="180" height="30" as="geometry" />
        </mxCell>
        <mxCell id="9O1I6l7ymoWSYBFQMa-3-108" value="" style="shape=image;verticalLabelPosition=bottom;labelBackgroundColor=default;verticalAlign=top;aspect=fixed;imageAspect=0;image=data:image/png,iVBORw0KGgoAAAANSUhEUgAAAR0AAAFRCAYAAABJ8HlsAAAABGdBTUEAALGPC/xhBQAAAAlwSFlzAAALEwAACxMBAJqcGAAAGtRJREFUeF7tnWmQXNV5hk2l4EeSym9+xSym/AdwTOxAghNTdpy4bJLgSrALIyyhjbhSduLYwoADEmKRWIwWzGKEhIQlzCKBWC2wwGxaMGhBQiuWRiBrQwtCI2m0zMzJ9917bs/tntOanpm+yzn9PFVv3e67dN/v3HueObe3+RQAAAAAAAAAAAAAAAAAAAAAAAAAAAAAAAAAAAAAAAAAAAAAAAAAAAAAAAAAAAAAAAAAAAAAAAAAAAAAAAAAAAAAAAAAAAAAAAAAAAAAAAAAAAAAAAAAAAAAAAAAAAAAAAAAAAAAAAAAAAAAAAAAAAAAAAAAAAAAAAAAAAAAAAAAAAAAAAAAAAAAAAAAAAAAAAAAAAAAAAAAAAAAAAAAAAAAAAAAAAAAAAAAAGSEMebU7u7uiyVjJNMkr0hWS7ZJOmQ5QO7ouWfPwVWSlyV6buo5erEsPtWevuALcuCGSOZI2uJDDOAXeu5KZuu5bE9rKBtycD4juVOyxx43gCCQc3q3Pbc/bU93KAo5Hn8iB+Kbkhck3fEhAggTPceF5yXfkLsn2W4AeSENf55kWXw4AFoLOffflnzBdgfIEmnov5BMlXTZ9gdoSbQPSKZI/sx2D2g20rhnSVbZNgcAQfuE9g3bTaBZSKP+h+SAbWcASKF9Q/uI7S4wWKQxfyLhhWKAE6B9RPi+7TYwUKQR77BtCgCNcY3tPtBfpPEmxm0IAP1kou1G0CjSaOPitgOAATLOdifoC22suM0AYJBwqdUX3d3dZ0sO2gYDgEGgfUlyju1eUIu00SnSQKvj5oKyoW8f1guUF+lT+tm2U2w3gzTSMFxWlRQVy5J1m8xrqzaYV9+1kdt6/631mxFP+eH1nVrExp+VHLENBCVDjo257qF5ZtTkWWbUpJk9kfvXzZgXLYfyon1L+5jtbqBIg/zOtg+UkIp0RDQjU9H7Oh/plB85RgtsdwNpj4viZoGygnSC4SLb7VobaYhX4/aAsoJ0woDRjiCNcIFtDygxSCcM5Dgprf07PNIA99v2gBIjxwnpBIL2Odv9Wg+p/2RpgF1xU0CZQTrhIMdqp0xOtt2wtZDCL4laAUoP0gkLOV5ft92wtZDaZ8ZNAGUH6YSFHK/WvMSSwrfYNoCSg3TCQvue7Yatg9R9Wlw++ADSCZLTbHdsDeQkvcwWDh6AdMJD+6Dtjq2B1MyXOz0C6QRJa30JVE7SR23h4AFIJzy0D9ru2BpIwStt7eABSCc8tA/a7tgaSMH6ASXwBKQTHnLMWusdLKl5f1w6+ADSCQ85Zjttd2wNpGB+sCtHOru6zLHjxweRTnNtHenofF3u3q7RdPLrgzmjfdB2x9bA1h0e3V0NJN/upU+3/P0t5vHXfj/gPPH6O+YH9z5SJZwkOl+Xu7ZrNI9Jjhw7bvc4H3R01khCxnbH8JFaT4pLDgwRyse/Hmp23/0lyYV1s3/+j3IVj3Yc7dS1o5RSZfIs0364w+5x9mib/PfkOeYHd822+VVNZpsfynTCnOeDFY/U1W27ZPhIvQFL59tm99Rzze4pZ9fNJ/P/E+nUpgDpjJo4wwy/+UEz/Babm6dVT2+dbm586GmkEwJSb7DS2afSmXJOL9Gkg3QcKUA6I0U6V940zVwpgqlEJJTcVvmMn4l0gkDqRTpIpzpFSGeCSEdHNbemZKNTe1tHOzc+NB/phIDUi3QKks5g4pSFjWv9/iSSTkd+b2j2SEcFY0c7IqBklKPzkU5ASL1IJ0/pSP6wbVf0j/FeWz2wvC750S8fjQWRit7X+brctV2jefXd9dHb5nlRkY4VTEU6lduxdMYjnTCQepFOzieyPpt2noGmq6vrhB8O1OWu7fqTPNHnq4x0EtHoZZZOkU54SL1Ix7MTWTteSJ9I1v0dOWF6tXQq0/gyK5LOrGe8q61RpC6k4z1Ixxt0f6N3rxLpRLGXV/YdLaQTEFIv0kE6haL7OyJ9eaWi0amOdGyQTkBIvUgH6RSK7u8IvbxKSSZKasSjHxxEOoEg9SIdpFMour/x5VXPpVRyO0n04cCHkU4QSL1IB+kUiu5vdHlV9cHAlHTkNtIJCKkX6SCdQtH9HXHrjHiEo6OaSD410pHp+Fl8DSIIpF6kg3QKRfc3+RpENNKxI574MisWDy8kB4TUi3SQTqHo/la9ZZ58FSJ1uRVJh2+Zh4HUi3SQTqHo/vZ8DUJHOzZ630bfveKnLQJB6kU6SKdQdH+rvnuVEk7ldR4J0gkEqRfpIJ1C0f2tfPfKSkYvsb4n8kE6ASL1Ih2kUyi6v9FrOiqYaKSjSV1e3cprOkEh9SIdpFMour+Vy6s6iaXDt8yDQOpFOkinUHR/ow8HqmCqLrF6op/d4Ue8AkHqRTpIp1B0f/XDgZVLq+St8pSA+I3kgJB6kY6n0tGfFU1LR+/7Kp2RkXT0rXIrHTu6qfy0hcznNZ1AkHqRjocn8qbtH5k1W7b1is73jVg60yuyGZYIJxrtWOlIuLwKBKkX6QR6IvuCiqTymo4m/c6V3FYBRS8k892rMJB6g5VO9M/2+pDOfqRTOCqSUbelpWOnqdv6ms64GU8hnRCQenOXTucnfzSHlt4juTfT7J3+Fado0tk765vObZuat+4zR9tet9X7xbt/2Gqefn25mf/6ssyijz9CL69c0onuxyOfH06a7dy+2dm9/4CtPj+QTsYc3fqWdPgTj0CCytRzTfvvbvFuRKV7O/vFxWbELdOjkUZP4pFHPE1up+enY+eJNKqm6XUjsSSCsVEJ2XnRcrussm6v2Esyve1aR+clP4PaK6ltJWu3bIsbIEeQTsbE0nF0zlDjuXQqnT6Jdk77om+l41YtdwigdpokNb9KKHrbppdokmX1btfO0/2JXpi2+yWpPGay3M7X2+uQTrZIvUgn63gvndSlTyKbdKo6rb0fTVPzkqlsPyxZv2Z5ldxSzxO9kxVJwya1Xq/HSieZl/qPErXLo8e2t5Os27I9boAcQToZg3T8oGqk4+r0yf1ECpV5PRKK3/qW+7XTZN1oKveTZXa7YennSSLzet5KT82PltnHrJoXz4/e/dLtosur+HkS2VQ9nn1MRjoZI/UinawT0uVVunPr7Sip5ZVlPR27sl5qWdU6er8q08zQ9PqSeL1pZliyfmpZJcn89PLaeTWPW0lqPiOdjJF6kU7W8Vk6L4l0qt5ZUoHEt/WnJ+pKQOYNT/5rp96XUUZFQrWxlz+Vx9Ztk2XJ/eSFZU3Nsmh58i9sEnnUPpeu43oMSTw/2QeRzgdIJ1OkXqSTdXyXjnTGXpc70kmrRim2w/YsT03rySZJJKRUx9ekb0f3bdLzkvny+NH2yf7UrpMkkZsmWc9uX3m+mxjpZI7Um7t0jm1bYfZM/6rZm2H2zPiq2f2Lz7slkMqee/5a9uUrzsdoWmZ8zRxaNNlL6fxKL6+0QycdVDunTIdPsJ1VhTHRjiAqHbpGHpWoHNLzU9Nofbmd3iZ5jGienZ++n56fiKN2O1dkm6HyXNGL0JX17VSWMdLJGKk3d+l0H+swnfvaMs/Hsy8RsfTxieS5w0zn3s3O7ZuZroO7bfV+sWrTVvPcopXmucU2ers2yXydvrmi9/x00vP0tr0/Ivlh9mS0kshAb0fTaeZ/pszp2TbZ3jF93j5uNE3mp29Xrftur3l7Pmm31ecH0gkBvgbRFLRlMo+0f+WXA5Mksknd139B0yXrOh+jiSkCpBMCfOHTGyLpJL+RnBrhRC8m69SOfm7k93TCQOpFOkinUHqko6+xiGCS12eSUY7cVwEhnUCQepEO0imUHunEI5p4hFP9mo7O4z98BoLUi3SQTqHUSieKjnaQTphIvUgH6RRKJJ3o3avU6MZmqJ3G0uHyKgikXqSDdArFKR2dJlHpSMY/zEgnCKRepOPZiawdr5H4gu5r5fIqkkxKPvYyi8urgJB6kY4nJ/KxtuVm13XnmZ1Xn33ijJFc+1fmaNsyu2W56ZFOLJuhle9iiWzs2+X6Y19IJxCkXqTjyYl8dPMys+vaz7tFUxtZT9f3gUg6yeWVSKbyDXMd6djRT3R5xVvmYSD1Ih2PpKMjGKdkarJDRzo+SWfC9Mr3sq6o+WKmztfLqxv5v1dhIPUiHaRTKJF0dKRjL6XiaUo8EqQTEFIv0kE6hRJJJ/kmuyaRj96WafTP9yRcXgWC1It0kE6hxNKRkY6VTGWkEyWeF72mw+d0wkDqRTpIp1Ai6UQvJItgkpGOTPX3bpIfXo9GOnxOJwykXqSDdAolkk7yc6NJEgHZxCMdpBMEUi/SQTqFEkvHXl5Fwum5rIqEIyMfPqcTEFIv0kE6hVKRjkgm+mnUm2LRxAKK5/GJ5ICQepEO0imUSDq3zojEoklGPBXx2PlIJxCkXqSDdApFRTJcRjrxf4TQ0Y29vLLCiaQj93n3KhCkXqQTqnR8++5V8la5ikan0f1EOtPMjQ/Nb6p09KH6Sl4gnRBAOn5dXqVeSI4uqyry6ZHO+CZ+Irmzq8sseWej+c3CFWZBnby1/P3cTg2kkwH7Dx42b7y30Zktu/bYtZoI0vFKOiMi6aQuqxLpSKIf8pJpM78Gcayr09x4xxNmyOipzlxx1VRz2+TmjqxOBNLJgD9s/8j88L5fSx7plRd+v6r5Bxfp+DfSSV7TiaTTM03+u2gzX0hOpHP5qCnODBk9BelkhdSbi3Q2/nGnGTlppjNPL1nR/IOLdPyTTiIaR5r94UCkUyBSb7DSCe2f7QUvnUQyafnobUmzPxyIdApE6g1WOgee+1+z71f/fsK0vzwe6RSMHvuxDz5lxj7wpBk7TabTZKr3NZXbT5p757/StPME6RSI1BumdISuQ/tNV/u+E6b7yCG7dvkJVTrKgUMd7hzuuX3w8BG79uBBOgUi9QYrndAIWTp5g3QKROpFOp6AdJoH0ikQqRfpeALSaR5Ip0CkXqTjCUineSCdApF6kY4nIJ3mgXQKROpFOp6AdJoH0ikQqRfpeALSaR5Ip0CkXqTjCf2Wjic/bVEESKdApF6k4wmMdJoH0ikQqRfpDAbd75wSS+dzTsnUpiIdx+NkFo9AOgUi9SKdAXJ85/umY80C07H2xaocsamdn17mWt7Xsvbf3W92XnOuUzK9Iuu1v3p/1faux00vcy1vaNm6eHp81/u2ZcoP0ikQqRfpDITuLtO+YIp08HPyy0916hBM3dRsn2nOjtpD2yUP9HwZTBqVTpdj2/6kUWRdpJNGm+7w0WPmYMeRAWd121ancDRz31xm2h3b9Ce6f7mi0nlx6gBEEGikHbQ98pDOkaPHzcZN283a9VsHnHfXbDFXj5vtFI5GpXP9LY86t+1PNm/ZFf00al8gnRqOd3aamS8tMjfNeXbA+dmsp5zC0fzkgcfN+DnPOLdrNA8vXGz3NieQTnVylM72HfvMD66e7pRF2XLDhMdMewPfjkc6Nah0bnvsBacwypI75y6we5sTSKc6SMcZlU4jP8mBdGpAOg6QTnWQjjNjVTpy+d8XSKcGpOMA6VQH6TgzbsLjSKcWqRfpDASkUx2k44xK51DHUbvn9UE6NSTSGSWdezBxyUITLZ88qyfJvLvstGb5yGg601w15eE4Ux82U+YvtHubE0inOkjHmXETGen0QuptQDpd5pmlK830BW8MOCqFESKPWuHovNsf/415atHySl5atsYsXbepkrc3tJnt+/abPQfao+xrPxTtkxynOLKPuX/KB+lUJ3fpzIje1h5MXJKojWu7/mTsRF5I7oXU26d0EpLOPZA08uHAyvqOD1VVltkUDtKpTo7SOXjoiFn8+w3m1TffG3Bekfz4+llO0WhUGNeOnyPrrum1bX/yzspN5ujxTrvn9UE6GRDmJ5Lzlk4/nmuMY16W+enZ5sALk3KRjhL9kRpEjnU29olk/WCfa/v+pBFkPaTTbIL8wmeX/AXrPG5zLHW7XpJ1UtPoMWrnu3N009v9+5a5rO98Tuf0REmtU7W/tctl6gl896pApF6kMxh0v3PKgH7awvE4mcUjkE6BSL1IxxMGJB1wgnQKROpFOp6AdJoH0ikQqRfpeALSaR5Ip0CkXqTjCUineSCdApF6kY4nIJ3mgXQKROpFOp6AdJoH0ikQqRfpeALSaR5Ip0CkXqTjCUineSCdApF6w5WOfoS9gfhCyNLpkuPfSJoF0ikQqTdM6cjjbX9wjvnwjnvMh7f/on7uuNduUH5Cls4dMxaaiQ/+tm5um77QTJ+3uGnnCdIpEKk3SOnoCGbVv3zPLDnjfLPk9L+pm6VnXpDbiTVYQpWOtv8ZXx9nTvva2Lo5XXLx9++TwSvS8R6pN2zpqFxO+2LdLP3M3yKdgtH2P1Ok8+l/vKFuVDxIJxCkXqQTqnTakE49kE6BSL25SOeDXXuj/0918yPPVeWmR541r63agHQagJEO0gkCqTcX6XSJBA4dOerMsQZ+Wa2/IB2kcyKQToFIvblIJ2+QDtI5Efr2+ytvrDZPzF9sHn+qd3S+/lRpXqcG0gkApIN0+kIfSZ+7buLVckGeD+n4DtJBOj6BdAIA6SAdn0A6AYB0kI5PIJ0AQDpIxyeQTgAgHaTjE0gnAJAO0vEJpBMASAfp+ATSCQCkg3R8AukEANJBOj6BdAIA6SAdn0A6AdDS0hljpcNPW3gD0gmAEKXT+dEW88kTN5hPHv1ZTx5L3U5l/xPXy/ptdstyg3SQThCEKJ1QQTpIJwiQjj8gHaQTBEjHH5AO0gkCpOMPSAfpBAHS8Qekg3SCAOn4A9JBOkGAdPxB21//2Z5LNkkq0gn0WCGdjDm+b4/5eOEzkmczy/6XnzUrvvytvqVzxvmy/nO9tm92Dq9daav3i2VrPjRzX1qRaea9tNKc8c99S+dLV0wy83670vkYzcxHe9tt9fmBdDJm/+K3pcOrDPKIWzbVcW3XxJx+gdl8/e16ZtkW8AMdgdxw9/PmTBHCGdLps8rp/zTW/KVDNL1i13U9RrOi/7548YrNtgXyA+lkTCwdV+cPNDKa2nyDn9K5/u7noo7olECgQToZI/UinayDdLwK0skYqRfpZB2k41WQTsZIvUgn6yAdr4J0MkbqRTpZB+l4FaSTMVIv0sk6SMerIJ2MkXqLkY5+fibruATgimvbJmbpmeebNl+lMzWWjn5OJsu4Or8rrm2bHaSTMVJv7tI5tH6jee/yUWbNt6807106tGq65tvD7DRO9fwkrmXV07WXjTRLzzrfLZmarLn0il770ft54+fsmddzu3Y/ovvfGV41f8dDc7yTjrJm0w7z4qJ1mWbhkvUNfSL5omFTonVdj9HM7Pn4oK0+P5BO1mjn6+7KNPo1iNWXDI1HGw7RJFl65gXRuultG023Y54r8Xr+CUfR0U4eafRrEJ1yrFzbNzNFIM+LdHyH7175g7Y/X/hEOt4TqnR0X19ftNbceteTcX7+pJkwqWequeuXz5s/7thntyg/SAfpBEHI0pn3zFIzZPSUurlqzDSzsW2H3aL8IB2kEwShS+fyUVPqZvRPHkA6noF0AqClpTMG6fgG0gkApIN0fALpBADSQTo+gXQCAOkgHZ9AOgGAdJCOTyCdAGht6fCWuW8gnQBgpIN0fALpBADSQTo+gXQCAOkgHZ9AOgHAazpIxyeQTgC0tHT4GoR3IJ0A4PIK6fgE0gkApIN0fALpBACv6SAdn0A6AcBrOkjHJ5BOAJRVOvpcg00jl1cbNu9wbtvf5IE+D9JpIekotu6gKKt0Fr62yjwy742ezLXTJ2ruu24/+Wa03rjbHnfKJsmw/7rH3DfjxfqPk9yuTWrZHHmefR+3S9vYHc8QpBNju2NrYGsOirJK5+Y75prvjpzslEWS79be72P9ekm26+/2+vxDRk81H2zdjXRyxHbH1kAO+hFbdzCUWTqujl62IJ180T5ou2NrIAXvtLUHA9IZXJBOvmgftN2xNZCCt9jagwHpDC5IJ1+kDdbb7tgaSMErbe3BoNJZN/xHZvnf/5tZduG/1s2KL38L6TiSt3T+4XuTzd9d/vO6uXDIJDP8/+aE/JrOO7Y7tgZy0OfbwoPi6M6PTMeH206crdvs2vmAdNxs3bHPfNhHdu45YNcOD+mDj9ru2BpIzRPj0iFrbr5znrlcOvR3JY1Ok+j9OG5RJNF3q070OK55tfeHXDXVtH3wUW7SATPOdsfWQCx7mS0cMmb/oQ6z58DButntmFeb2XPfcMomyegfP2BWrN3i3LY/OX680+41ZI32QdsdWwOp+bS4dMgaHTkMNo1+DcK1bX8CuXKa7Y6tg5g2uHewQkSOU3Bf+Gx1tO/ZbthaSO0z4yaAMtOYdPz6wmerI8f0ftsNWwup/ZK4CaDMIJ3wkGP6ddsNWwup/WQpPrhPJodGQ9Lx7KctWhk5nrtkcrLthq2HNMD9cVNAWWlIOrym4w1yPCfb7teaSAN80bYFlJTGpMNIxxfkeH7Odr/WRdrh1bg5oIwgnXCQY7nAdrvWRtriorhJoIwgnaC4yHY7kBP7t7ZRoGQ0Jh1e0yk7chxftN0NFGmQz0qC+2GvEGhMOox0yoz2Le1jtrtBgrTNuLiJoEwgnSBorS93Noo0zClygq+K2wjKAtLxGzl+q2Vyiu1mUIs00DmSg3FzQRloTDq8plNGtC9JzrbdC+ohjXSVbTMoAY1Jh5FOGdG+ZLsV9IW0F6/vlISGpMPXIMoIr+P0F2k0fl2wBDQ20uHyqmQgnIEiJ/wE24hQEOIcM+/Zt8xlIpd6GX010ikL0meus90HBoq04zVxc0JR7N77iVmzYWvdbNi83RzuOGrXhiIQ2SijbLeBwSKN+R1JuD/NDzAIbN+41HYXaBbSsGdJNsbNDACK9IlV2jdsN4FmI23859LAk+PmBmhtpC/cKZM/td0DskQa+wuSt+OmB2gt5NxfJjnPdgfIC2n7k6ThvyF5XsI/MIGg0XNceEHyTbl7ku0GUBRyIPT1njslu+NDBBAGck7vsec2r9uUFTk4QySzJW32uAF4hZ67kjl6LtvTGnxBjt+pcuAuloyRTJO8ItFX+7dJOuJDDJAveu7Zc3C15GXJ/ZIfSy6Wxafa0xcAAAAAAAAAAAAAAAAAAAAAAAAAAAAAAAAAAAAAAAAAAAAAAAAAAAAAAAAAAAAAAAAAAAAAAAAAAAAAAAAAAAAAAAAAAAAAAAAgRD71qf8HTR8uiX0UmpgAAAAASUVORK5CYII=;" parent="PmAsDYt7ePFWswJWPdAt-1" vertex="1">
          <mxGeometry x="1591.12" y="-843.5500000000001" width="86.86" height="102.71" as="geometry" />
        </mxCell>
        <mxCell id="9O1I6l7ymoWSYBFQMa-3-109" value="&lt;span style=&quot;font-size: 18px;&quot;&gt;Machine Learning&lt;br style=&quot;font-size: 18px;&quot;&gt;&lt;/span&gt;" style="text;html=1;strokeColor=none;fillColor=none;align=center;verticalAlign=middle;whiteSpace=wrap;rounded=0;fontSize=18;" parent="PmAsDYt7ePFWswJWPdAt-1" vertex="1">
          <mxGeometry x="1551.62" y="-398.84" width="180" height="30" as="geometry" />
        </mxCell>
        <mxCell id="9O1I6l7ymoWSYBFQMa-3-110" value="" style="shape=image;verticalLabelPosition=bottom;labelBackgroundColor=default;verticalAlign=top;aspect=fixed;imageAspect=0;image=data:image/png,iVBORw0KGgoAAAANSUhEUgAAAIAAAACACAYAAADDPmHLAAAACXBIWXMAAAOwAAADsAEnxA+tAAAAGXRFWHRTb2Z0d2FyZQB3d3cuaW5rc2NhcGUub3Jnm+48GgAAFGZJREFUeJztnXt4FtWdxz+BJCQESQIiEbmoIC4JosWCF7zRVaorCBGKiO2uF2wXbbeifba2PF767HqtF6wXapVVUWi7tgpqLVR3EUERFBeEgBCkSDQG8JKEO7nM/vHLwMyZM/POvO/Me0ne7/OcJ5kz55z5vXN+cy6/24EsssgiiyyyyCKLLLLIIouOjC7A5cAfgA1AI7AH+BiYD0wG8lNGXRaR4jLgE8CIkbYAlSmiMYsIkAPcR+yOV9P9QKcU0JtFyLiH4J1vpvtSQG+oyEk1AWmARuAo8yIvtxPfP+94Jozsy+A+3emUk8Om2kZeXlnDvLe3cai5Va1fCSxIJsFhIssAsAI4E+CY4gKe/+lZlPct1hasqmng6kdXUFd/wJq9BagADkVNaBTo8AzwqyuHXlT9+Z7FBuT82z+dTJ8ehZ7lq2oauOyepepIMBl4MUo6o0JuqglINa79zsCxGDm+P4SKfsVMPfd4nl2y1Zo9ngxlgI68ir0U+Gz4LYumL1m/I1DFyjP6qlnfDouoZKMjM8BvgeN2NR7Mu/WFNYEqDu7TXc3qExZRyUZHZoAS85/ar/ez92BzKmlJGToyA9RZL6prd/uuuLm2Uc36IgR6UoKOzACrrBcvrazxXfHllZ+pWStDoCcl6MgM8Ir1Yt7b26iqaYhZqaqmgXnLtqnZr4ZHVnLRkeUAeYiW70Qzo6ykgGd/chYV/QILgoYAGbmI6JxqAlKIVuBzRIgDwJ4Dzfzx3e182XiQkqI8unfNo6mllXXb65m9qJpfzFtL474maxsGMA1RHWcRA0OBWcB6RMe+p+3/WW33UoVHiF8Z9GQK6M045AOPAy24v8hm4FFSY2yxwIOuWGkj0DX5JGcO8oH/wf8LfZPkMsG0ALS5pd8lkd6Mw+MEf6G/SRJtA4HdPuhpBKqAeYjqd46mzKQk0ZxRGIoM7YdfVHHZccaUWc8ZM1dtN2au2m5c+chc4+gTBummg4qIacsF3lWeuxvYqeRdoalbhAz91nJfA/0jpjkSRCkHmIZll1Fcdhw3vPQ25ReNo0tRN7oUdWPIhWO5ft5iuve2idI7A9dFSBfAL4CzlLw7gR6WawNYoqm7F7gSOGjJKwVeIAN3VVEywEXWi0tuvZvC4lJHocLiUi75+V2edUPGCOA2JW8hsp+3duB6ZETQYQ1wq5J3LjAzDAKTiSgZoJ/1YuDZo10LDhr1HTVrQAT0gAzfLyBCIBM7gOsBlYj/jdHWI8BflbzbgFGJEJhsRMkAvo1NDMNQs7oBUwGH3jVBPAAMtj4amW52EZwBDOBq7EqlXGSxWKKrkI6IkgE+tV5sXfGWa8Gt7y1Vs3KQF7kTeA24FuiZID2XAj9S8p4E/gL0xr7wbAEcRGmwE2ECKwcPIIMERFEuWsqR+RaAuk3rGHbpJPIK7DZ3+xu+4cWfTWN/wze6NnKRL3Y8cDNwHjI6fIZIEv2iF7Cora6JzcBEoAkYh30r9wHwmM+2P0Gsis+25FUANcD/BaCx3WEYivSve+8+xhUPPWPMXPmpMXPlp8aUWc8ZPQcMjEf40gIsA27C33pBlfY1YWFORJhjvX9PwN+aD6xW2tgDnBywnXaHhwneufOQDtjss3wr8D6yKj9JQ8N1mjq3K2W2KPcvjOO3DkY63drOajq4L2Fn4HWCMYDV7+4UZH/+UYD6HwF3tNXVSfvexb5AHaDcPwB424a741oNPQ/E2Va7QQHwBN7KIGv6ApmzVZyEfOXvI1+9n7b2Kde7gUFKu9coZXTCnyD4o9JeK/DdBNtsF/gD9hezH5GxP4141VjvxXK1GoDM/8vwz1jm1z8K++7neaWMKiQKihJgm9JmHXBMgu1mPD7G/lLOs9y7DWdn+RUHlwHTgTeQxZ0fRqhFRqV/RIxCrPfCEOSM0tDyOh3YAqsE+7DdjEjlTLgpZwYGfE5P4Mf4nyLUtBu7lDAR3K5p/6aQ2s44XIT9RazVlPGzYPOD2UobrYgCxw8DHEB2IZeTuKFHZ+BtTfunJdhuRmIm9hfxlEs5nYFGkDn5Upxf/xNIZ05EOrdB8wxdqge+F+DZOvRHVMXWdjdiH/06BBZifwnXe5RVhTaHsAtt3NALWWxZ636M80vugjDKs8RmglqlbhHBt4iTNO26fQDtFl9gfwGnepTVdeQmYn81QRlnOLEZYIul/DXIEN6ELDinIwtQP1AljQYdyIqoP/YfvofY87puKJ/tUT6eqeNnSvmXgXMQ6eUGxB7AulPZoXmGX5F0V/RWRI+SflbSoUMdAv1o2UC/mLtUUy7exaMqobwxRvlYoulYIunTkBHEz/ojlVbSoePX2H/cr33WK0KGfmvdOuxSwni3j3k4mWZIjDojcCp8vNJHiBj7FEsbNweob5B8K+lIsBT7jwqysh6BU6BilRLqBEjTfLQ7SqnzeQCa4hFJb0YUXPN9lremZFlJR4LOODVkXnOlDjqByjSEOYKKkE2ojPN8QJpMDCA+kbQBGAXFPYzhU24wxsx83Bgz83Fj+JU3GkVHl+mmg8ispKMWTQ7DLvTZgf+Vs4lcRKBiteLd09aWdajfgQy3u3y0+RZwvuX6WuCZgHSpKEM0mZcDFxBjDVJQ3INzb7iTvEL75qZp/16WPX4HBxptBjIPI9NH6IjaPXykcr1KW8obzcA/Y7cA6oa98w2O2PbFQlfawsJZEMv+zw/qkIXrRQgzXIeYmx3UFS6/ZIqj8wHyCosYcskUNTsyK+lMYACQ/fgMj/umbZ8fjEKEQSY+QbFfDAFfAf8FjEW0gFchTHoYRw90H9V7DXLcCzpt+kamMACI2vgVTf5mZE/vF0GtfxNFI7L42+e7huHIiSycX5QMUIR98WIgK+dUI9kMkI9MYbb11pdb3UMKaO79PXSq2hAlA5yOnXM3A1rTX5+YhoR0VzEY/2ZXxW10mTBI3ALIDaXAz5HOew5FJ7HpjT/TtH+vo1LT/r1seuPPavaiiGiMFKqodW4CbQ3C25PXTUqo4jKl3kcJ0OSGExGvoZiexwXdS41vXTHdGDPzMWPMzMeM4VNuMIp69tZtA0+IgM7I8d/Yf8iP42wnFwnorEr7VEteVUqowyylzqw4adLhTOQ32zyiQ0gPhkhjUrEN+w9RF4R+EaYgSLUu1k0pQdAJ2fcv19CoMuwjiLh5UYyy1vQ6GehxDOJqZf0hB7BvvfxiJOGJgnvjNEvThwOLjSJEeVSteb41fY6Ija1u0QXIyOM1UjQDdxOeeVrSMQ77D4onkGLYyqApIdBUBtwFfIl3x69BVv5eipwK4KG2sup64cM4aEsr/Cf2H/RIHG38VmmjFRGsqDgR2Wtby76P8+tRjTLuDkDLSchvUP0M1LQcYf6gIvYe2HUJzVhOMclE/A37i/l+wPoXo7ftc4PO/Us1CInH/escJAqol9bvILLDSdSIo0ppN8ogGZEiB6ch5GDPGnbEaxL2slLnECI9rMKpkfRy/zIFN2tw73QDmQbuIrhyyw3qCHVnSO0mHSdj/yFfE2xIVA1Im/C3g+iF0/bQLbUiQ3qBpX4psmBTHUXUVI0sAMO27P0X5Tmvh9x+0vAD7D9kcYC61+N84aonrxcqNfW90mIkjoEfwc1yZMsXlfS0H/adgUMcmCl4FPuL+w+f9XTSvqCOIfHEJfRKzYhwR1UfR4UZiF3DGuAfkvTM0LES+0sc56OOm7RP9eT1wlCUxVqfwkLjyZEjjY1jxxobx441njrjDGNgt25+Ot4U3JyoeU67Qthqxi44bf79qIB/ifMrm4HdLj8W/hXLWqNPYSGLR4+mJP/IVvziY4/lzJ49GbNkCV/s369roxaxwfsdiSmuMgZhz2enYpf4fYoMaV4YiT5u39MBn21T895xyim2zjdRkp/P7UMdO7Z9yCLsBOQ42FR2fjliRvcV3kYwoSBsBghqAFKEGGRaRyIzbl9Q2EK1nneMuzv+Bb17q1kGspdPh9M/70ZsKXsgJvT9vIsnhqgZIJa41StuX1D4/i2auISOA4FTCOuw1RmnAUuoSOUIMBb3uH3xYJv1Yvkudx5a5ry3Pc5nRgH1nUUaeTRMBijF/jU3467U6IXM8VYBUVDbPiscBhP3VlVRf8g5otcfOsS9GxwmV3+L87lR4B3lOmNCz47BvpXyOo4zXmmfijxEeqcNAHFsYaExe8SIw9vAJ0eONE7QbwP/SvqEdz0Kuwq8lcSjpCYFqm7eLVzqD3F2QDyBmc4B1mnaijdtI33OAFZ9EBM1XEkKXsFOtM4wIwxpX09k+nDT0H3lku8n7UVE2amGepDVfaklxx9UDd4w5X6i0r4cZK+unuphpl1I4OYuiDjay1evBfHiUaWWZnqC+CyYwsJkhZ7lKaTFFwbg7FjVls3Nts8PhiD+fLrOakXO8VHnyQrE9Godog7eiwRg+A1HdPddcMYhMNN7RLwH90AfhZYD2DWXaQeVY5co908nPk/eQkQv7hZYYRMS6y9RXIXTZsBAdP5jQmg/HmxVaDk3RXT4wgO4z1lFOINE7kSMNL0wWlPPTPsQxghzmB6ChIbRjTD3kvxzlucqdKhH1KQV1Hh4Ey33nsT5QnW2fSbKcP54a/oL0TlKdAf+5PLc17Bb90aNHynPT9sDqnVBIMy5M4htXyfEFMttFV/bdj9q5AA/RR92dhvJ2ypWKM/+mjQ97f007IR+0ZavM9Hagv3UDmsb76Hv+BZkFAn7/KBYuADnzsZAglxHfawdCCOqH0NaRg9TBTvm4k4dSpuAM5S6Rcj86uYk8SHxexSFgb44/Q7MNJf4zxXwi1eVZ6q6k7TA09iJ/CX+pH3jEHsB3cutR4bhdHCLykWYVEfnauD4CJ99K06mSzuo/nY/xOmosYojjhp9EYNHt0Xeq6Ru/+2FVGwVz1GetTWi5/hGPnKe7nxki6Z7IWpETFPa56m4QUK1XJy8nxIXTkXvD9iMjHxhB90qwCkDOS7kZ/jGRKST3L5ctzQN4eT1LvcPIg4WUc+nYaEEpzbTTAsJX6uoeh5PDrn9mOiMU9DjNy1DxLRuipulxI7QmY7IQb543eK1Gu9g2EFxn9J+PH6WCSHezjdwP8LFVNxk+hEqF6JXTu0lPJmFGtVkdUjtArE7YCKynTuM3PxcTr9qNKeMP5NjTpbpaOemz1m3YAWr579F86Fmr/YMJCDjvyN73PaAfsg70m1XZyOWvdpYgT7RE/lgzL5qQSSSuxNo8zC8GCAfWdAddo7oXlbK1GdnUDZEv0iv27Cd+dfMorFOa1VdhcTYXxY/uWmLLkg0z+mae6uQiOk1CbRfhZiLmxiDnFmQMLxEi5VYOj83P9ez8wHKyvsz9ZmbyM132HfMBb5F++x8kC/8BsReQY0HOBIZtuM5jdREZHaCXgww3npx+lWjPTvfRFl5f4Zfeb6anY+sB9o75iKHSKseTebh1fFuFVUGOCeONrTwYgBrPD2GTfDvHzms8iw1K11s7ZKBtUgAKzWqaWdku7uA4FtF1SLoTEJy6/NigGOtF71O8i9/6DXYUbYfMm+lo4QvCtQDE5DT0lqUe5chIWyCbBU/4YiSDUSHEsrxc8lSL3ZBfPG3Iy9nBXJy1gxkyMz07aAOBuLmdTFOT6dBiJIpyFYxkmnAiwGsHMeuav+Hauza7Fm2GBnCpiFRst7BeYzM2W2pPeBNZDpV3eS6IiFk/RqgRrIQ9GKAD6wXH728wnejQcq2weoM+jDyY9/BGSVzJLKa7hv0ASlGDXJAhe7ks+mIRVWs6VFdB0Q+Aiy0Xqye/xZ1G2K70NVt2M7q+Y6DwRYjBh+NLtWsXkTXWv63Gl48jHxFbyAvtB4ZRs2pZAzpzRiJbhXXIBJGE2UEP1vZgViCoA3Wh3QvK2XqMzdRVt5fW8FFEPQpEmfP3Ab2Q4QaFUhAqQZkKqhru/82RyxglyKWObSV82MV1IAIsNYrfxMRxISNUxHpoeoT0YKYz9+DrCFUvIndCvpqZBqJG7EWX5XAS9aMznm5nD71fIZVnsUxg+WD27GphnUL3mP1/KW0NDlEwRNQRpMY6I2Iig1kbWAGmFhGYsNeujFGCdJ5OrevV5EFYr2Sfydwh+X6KcT+IlLcT/zKoIdCpKMMmQZWIC8mXprUZN2V3Exyt6teWsUtOLeK39WU24PYZsxHVMWhnzPYCadK0k96kGi3d6Zs4Wak8zKZMfxoFSfhbkKnMk5lFEROIHZ0bAM5ISMSAnwiUxmjH+6W0W75Xul+fMh5gn6heQgjjEf2tn3bHlLXRuSCtpSOcv9+iPHJUOVvvCHjVYSxxvDSKsaD+5Fja1zRHiVwQZGOjPEDJFp6V/VGl7xOTKvsz5Qxfag4UQKKV23dze8X1zJnwXYONjnCHVXi4YeZZQB3JIsxqpDttvnXZIwRiNzjSOzDXgUsfPDbDDtJvxteW93IhFs+oHbXAWv2FmTLrY2AlmWA4IiaMRoRRmhAVv2AfPnL55zt2vkm1lY3cu5176ojwWTgRV35LAOEh0gZ48bJx/PQjPLYBYGbHqxi9p9sh6HOw+XMhiwDRI9QGGP5nLMZUe7PjGDl+nrOu/5da9YmXIJPR3YkaRaHUdOW1FB0pcjcXG75eyouR98NOcH/CTIVAx1lXY05sgyQOnyDaPhULZ85YiwkzrAwmkiojgwTaelv3sFhjhbbrJkb/+7fCnzD1j1qVq1b2SwDpC/WWi/mL3LtQwd+v9hhkON6aHeWAdIXtm3bnAXbWVvtZk5xBGurG5mz0CFjctXGZhkgffEaFnfwg02tTLjlA08mMAVBh+wygGo8GCAdAjBkoUcLYkQ7xczYva+Z5177jJ1fH6S0ez4lR+VxqNngw00NPPD8Vn5yfxX1u21qGAOxsNqYXNKzCBOJ2GPckwJ6swgZnRDLqCAdn6rYhllEiEqcx9/q0mYUt74s2g/ygO8BLyDz+h7ETXwDcvbSJDL4yPksssgiiyyyyCKLLLLIIhn4fyqFO1owKY1fAAAAAElFTkSuQmCC;" parent="PmAsDYt7ePFWswJWPdAt-1" vertex="1">
          <mxGeometry x="1591.12" y="-487.84" width="101" height="101" as="geometry" />
        </mxCell>
        <mxCell id="9O1I6l7ymoWSYBFQMa-3-112" value="&lt;span style=&quot;font-size: 18px;&quot;&gt;&lt;i&gt;Postgress&lt;/i&gt;&lt;br style=&quot;font-size: 18px;&quot;&gt;&lt;/span&gt;" style="text;html=1;strokeColor=none;fillColor=none;align=center;verticalAlign=middle;whiteSpace=wrap;rounded=0;fontSize=18;" parent="PmAsDYt7ePFWswJWPdAt-1" vertex="1">
          <mxGeometry x="484.64" y="-993" width="180" height="20" as="geometry" />
        </mxCell>
        <mxCell id="ZuXJDVdzR-EoS6bx_8SH-0" style="edgeStyle=orthogonalEdgeStyle;rounded=0;orthogonalLoop=1;jettySize=auto;html=1;dashed=1;dashPattern=12 12;strokeWidth=1;strokeColor=#9C9C9C;" parent="PmAsDYt7ePFWswJWPdAt-1" source="ZuXJDVdzR-EoS6bx_8SH-1" edge="1">
          <mxGeometry relative="1" as="geometry">
            <mxPoint x="656" y="-780" as="targetPoint" />
          </mxGeometry>
        </mxCell>
        <mxCell id="ZuXJDVdzR-EoS6bx_8SH-1" value="&lt;font style=&quot;font-size: 13px;&quot;&gt;Stored Procedure&lt;/font&gt;" style="shadow=0;dashed=0;html=1;strokeColor=none;fillColor=#4495D1;labelPosition=center;verticalLabelPosition=top;verticalAlign=bottom;align=center;outlineConnect=0;shape=mxgraph.veeam.script;" parent="PmAsDYt7ePFWswJWPdAt-1" vertex="1">
          <mxGeometry x="631.05" y="-860" width="49.6" height="40" as="geometry" />
        </mxCell>
        <mxCell id="ZuXJDVdzR-EoS6bx_8SH-5" style="edgeStyle=orthogonalEdgeStyle;rounded=0;orthogonalLoop=1;jettySize=auto;html=1;dashed=1;dashPattern=12 12;strokeWidth=1;strokeColor=#9C9C9C;" parent="PmAsDYt7ePFWswJWPdAt-1" source="ZuXJDVdzR-EoS6bx_8SH-6" edge="1">
          <mxGeometry relative="1" as="geometry">
            <mxPoint x="971" y="-780" as="targetPoint" />
          </mxGeometry>
        </mxCell>
        <mxCell id="ZuXJDVdzR-EoS6bx_8SH-6" value="&lt;font style=&quot;font-size: 13px;&quot;&gt;Stored Procedure&lt;/font&gt;" style="shadow=0;dashed=0;html=1;strokeColor=none;fillColor=#4495D1;labelPosition=center;verticalLabelPosition=top;verticalAlign=bottom;align=center;outlineConnect=0;shape=mxgraph.veeam.script;" parent="PmAsDYt7ePFWswJWPdAt-1" vertex="1">
          <mxGeometry x="946.41" y="-860" width="49.6" height="40" as="geometry" />
        </mxCell>
        <mxCell id="n53mdOSsOOulZ1DInRCV-0" value="" style="image;aspect=fixed;html=1;points=[];align=center;fontSize=12;image=img/lib/azure2/databases/Azure_Database_PostgreSQL_Server_Group.svg;" vertex="1" parent="PmAsDYt7ePFWswJWPdAt-1">
          <mxGeometry x="490.06" y="-1035.67" width="40.29" height="45.67" as="geometry" />
        </mxCell>
      </root>
    </mxGraphModel>
  </diagram>
</mxfile>
